<svg width="121" height="27" viewBox="0 0 121 27" fill="none" xmlns="http://www.w3.org/2000/svg">
<path d="M3.96816 17.3994H8.21431V19.4487H1.38354V6.5625H3.96816V17.3994Z" fill="#060606"/>
<path d="M19.5186 14.1133C19.5186 14.4825 19.494 14.8148 19.4448 15.1102H11.9679C12.0294 15.8487 12.2879 16.4271 12.7433 16.8456C13.1986 17.264 13.7586 17.4733 14.4233 17.4733C15.3833 17.4733 16.0663 17.061 16.4725 16.2363H19.2602C18.9648 17.221 18.3986 18.0333 17.5617 18.6733C16.7248 19.301 15.6971 19.6148 14.4786 19.6148C13.494 19.6148 12.6079 19.3994 11.8202 18.9687C11.0448 18.5256 10.4356 17.904 9.99249 17.104C9.56172 16.304 9.34633 15.381 9.34633 14.3348C9.34633 13.2763 9.56172 12.3471 9.99249 11.5471C10.4233 10.7471 11.0263 10.1317 11.8017 9.70096C12.5771 9.27019 13.4694 9.05481 14.4786 9.05481C15.4509 9.05481 16.3186 9.26404 17.0817 9.6825C17.8571 10.101 18.454 10.6979 18.8725 11.4733C19.3033 12.2363 19.5186 13.1163 19.5186 14.1133ZM16.8417 13.3748C16.8294 12.7102 16.5894 12.181 16.1217 11.7871C15.654 11.381 15.0817 11.1779 14.4048 11.1779C13.7648 11.1779 13.2233 11.3748 12.7802 11.7687C12.3494 12.1502 12.0848 12.6856 11.9863 13.3748H16.8417Z" fill="#060606"/>
<path d="M24.5683 11.344V16.2917C24.5683 16.6363 24.6483 16.8887 24.8083 17.0487C24.9806 17.1963 25.2636 17.2702 25.6575 17.2702H26.8575V19.4487H25.2329C23.0544 19.4487 21.9652 18.3902 21.9652 16.2733V11.344H20.7467V9.22096H21.9652V6.69173H24.5683V9.22096H26.8575V11.344H24.5683Z" fill="#060606"/>
<path d="M36.0078 6.5625V19.4487H33.4232V6.5625H36.0078Z" fill="#060606"/>
<path d="M41.7245 11.344V16.2917C41.7245 16.6363 41.8045 16.8887 41.9645 17.0487C42.1368 17.1963 42.4199 17.2702 42.8137 17.2702H44.0137V19.4487H42.3891C40.2107 19.4487 39.1214 18.3902 39.1214 16.2733V11.344H37.903V9.22096H39.1214V6.69173H41.7245V9.22096H44.0137V11.344H41.7245Z" fill="#060606"/>
<path d="M87.5521 9.22096V19.4487H84.9491V18.1563C84.6168 18.5994 84.1798 18.9502 83.6383 19.2087C83.1091 19.4548 82.5306 19.5779 81.9029 19.5779C81.1029 19.5779 80.3952 19.4117 79.7798 19.0794C79.1644 18.7348 78.6783 18.2363 78.3214 17.584C77.9768 16.9194 77.8044 16.1317 77.8044 15.221V9.22096H80.3891V14.8517C80.3891 15.664 80.5921 16.2917 80.9983 16.7348C81.4044 17.1656 81.9583 17.381 82.6598 17.381C83.3737 17.381 83.9337 17.1656 84.3398 16.7348C84.746 16.2917 84.9491 15.664 84.9491 14.8517V9.22096H87.5521Z" fill="#060606"/>
<path d="M94.7977 19.6148C93.8131 19.6148 92.9269 19.3994 92.1392 18.9687C91.3515 18.5256 90.73 17.904 90.2746 17.104C89.8315 16.304 89.61 15.381 89.61 14.3348C89.61 13.2887 89.8377 12.3656 90.2931 11.5656C90.7607 10.7656 91.3946 10.1502 92.1946 9.71942C92.9946 9.27635 93.8869 9.05481 94.8715 9.05481C95.8561 9.05481 96.7484 9.27635 97.5484 9.71942C98.3484 10.1502 98.9761 10.7656 99.4315 11.5656C99.8992 12.3656 100.133 13.2887 100.133 14.3348C100.133 15.381 99.8931 16.304 99.4131 17.104C98.9454 17.904 98.3054 18.5256 97.493 18.9687C96.6931 19.3994 95.7946 19.6148 94.7977 19.6148ZM94.7977 17.3625C95.2654 17.3625 95.7023 17.2517 96.1084 17.0302C96.5269 16.7963 96.8592 16.4517 97.1054 15.9963C97.3515 15.541 97.4746 14.9871 97.4746 14.3348C97.4746 13.3625 97.2161 12.6179 96.6992 12.101C96.1946 11.5717 95.5731 11.3071 94.8346 11.3071C94.0961 11.3071 93.4746 11.5717 92.97 12.101C92.4777 12.6179 92.2315 13.3625 92.2315 14.3348C92.2315 15.3071 92.4715 16.0579 92.9515 16.5871C93.4438 17.104 94.0592 17.3625 94.7977 17.3625Z" fill="#060606"/>
<path d="M105.192 11.344V16.2917C105.192 16.6363 105.272 16.8887 105.432 17.0487C105.604 17.1963 105.887 17.2702 106.281 17.2702H107.481V19.4487H105.857C103.678 19.4487 102.589 18.3902 102.589 16.2733V11.344H101.371V9.22096H102.589V6.69173H105.192V9.22096H107.481V11.344H105.192Z" fill="#060606"/>
<path d="M119.002 14.1133C119.002 14.4825 118.977 14.8148 118.928 15.1102H111.451C111.513 15.8487 111.771 16.4271 112.226 16.8456C112.682 17.264 113.242 17.4733 113.906 17.4733C114.866 17.4733 115.549 17.061 115.956 16.2363H118.743C118.448 17.221 117.882 18.0333 117.045 18.6733C116.208 19.301 115.18 19.6148 113.962 19.6148C112.977 19.6148 112.091 19.3994 111.303 18.9687C110.528 18.5256 109.919 17.904 109.476 17.104C109.045 16.304 108.829 15.381 108.829 14.3348C108.829 13.2763 109.045 12.3471 109.476 11.5471C109.906 10.7471 110.509 10.1317 111.285 9.70096C112.06 9.27019 112.953 9.05481 113.962 9.05481C114.934 9.05481 115.802 9.26404 116.565 9.6825C117.34 10.101 117.937 10.6979 118.356 11.4733C118.786 12.2363 119.002 13.1163 119.002 14.1133ZM116.325 13.3748C116.313 12.7102 116.073 12.181 115.605 11.7871C115.137 11.381 114.565 11.1779 113.888 11.1779C113.248 11.1779 112.706 11.3748 112.263 11.7687C111.833 12.1502 111.568 12.6856 111.469 13.3748H116.325Z" fill="#060606"/>
<path d="M72.8689 21.432C74.2396 19.6776 75.1449 17.6054 75.5009 15.4078L70.5429 14.6047C70.3222 15.9673 69.7609 17.2521 68.9111 18.3398L72.8689 21.432Z" fill="#193A99"/>
<path d="M75.5724 14.9053C75.8437 12.6956 75.5524 10.4531 74.7256 8.38603L70.0622 10.2513C70.5748 11.5329 70.7554 12.9232 70.5872 14.2932L75.5724 14.9053Z" fill="#193A99"/>
<path d="M74.5282 7.91855C73.6226 5.8847 72.218 4.11253 70.4447 2.76649L67.408 6.76715C68.5075 7.6017 69.3784 8.70044 69.9398 9.96143L74.5282 7.91855Z" fill="#224DCC"/>
<path d="M70.0347 2.46749C68.211 1.19052 66.0943 0.3949 63.881 0.154458L63.3385 5.14769C64.7108 5.29677 66.0231 5.79005 67.1538 6.58177L70.0347 2.46749Z" fill="#224DCC"/>
<path d="M63.3755 0.109345C61.1546 -0.0459556 58.9304 0.362252 56.9094 1.29609L59.0162 5.8555C60.2692 5.27652 61.6482 5.02343 63.0251 5.11972L63.3755 0.109345Z" fill="#2A60FF"/>
<path d="M52.2065 4.94606C53.3678 3.52028 54.8146 2.35254 56.453 1.51758L58.7329 5.99286C57.7173 6.51044 56.8203 7.2346 56.1007 8.11839C55.3803 9.00255 54.8522 10.0272 54.551 11.1266C54.249 12.2263 54.1806 13.3768 54.3489 14.5044C54.5172 15.6323 54.919 16.7125 55.5283 17.6759C56.1382 18.6393 56.942 19.4653 57.8893 20.1004C58.8358 20.7356 59.9048 21.166 61.0278 21.3643C61.589 21.4635 62.1569 21.5037 62.7233 21.4849V21.4789C63.9477 21.4357 65.1031 21.1224 66.1322 20.597L74.1581 26.5119H62.7233C62.3251 26.5202 61.9263 26.5097 61.5289 26.4811C61.0691 26.4481 60.6102 26.391 60.1542 26.3102C58.343 25.9902 56.619 25.2961 55.0911 24.2715C53.5639 23.2472 52.2673 21.9153 51.284 20.3611C50.3007 18.8072 49.6524 17.0648 49.3812 15.2462C49.1093 13.4271 49.2204 11.5717 49.7072 9.79808C50.1932 8.02449 51.0451 6.37185 52.2065 4.94606Z" fill="#2A60FF"/>
<path fill-rule="evenodd" clip-rule="evenodd" d="M64.55 12.2372L66.474 9.521L63.4332 11.1615C63.1354 11.0247 62.804 10.9484 62.4548 10.9484C61.1588 10.9484 60.1082 11.999 60.1082 13.295C60.1082 14.591 61.1588 15.6416 62.4548 15.6416C63.7508 15.6416 64.8014 14.591 64.8014 13.295C64.8014 12.9145 64.7108 12.5551 64.55 12.2372Z" fill="black">
  <animateTransform attributeName="transform" attributeType="XML" type="rotate" values="0 62.4548 13.295; 90 62.4548 13.295; 0 62.4548 13.295" keyTimes="0; 0.2; 1" dur="2s" repeatCount="indefinite"/>
</path>

</svg>
